<?xml version="1.0" encoding="UTF-8"?>
<svg width="30px" height="48px" viewBox="0 0 30 48" version="1.1" xmlns="http://www.w3.org/2000/svg" xmlns:xlink="http://www.w3.org/1999/xlink">
    <!-- Generator: sketchtool 49.3 (51167) - http://www.bohemiancoding.com/sketch -->
    <title>A431EFE9-6D16-404F-9296-F2FFD03F9783</title>
    <desc>Created with sketchtool.</desc>
    <defs></defs>
    <g id="Page-1" stroke="none" stroke-width="1" fill="none" fill-rule="evenodd">
        <g id="Web-—-12-x-7-grid-Copy-3" transform="translate(-749.000000, -1408.000000)" fill="#3BCF7D">
            <g id="Group-23" transform="translate(112.000000, 865.000000)">
                <g id="Group-7-Copy-3" transform="translate(453.000000, 543.000000)">
                    <g id="Group-10" transform="translate(184.000000, 0.000000)">
                        <path d="M13.7770167,-9.86076132e-32 L21.5563166,0 C25.9745946,-8.11624501e-16 29.5563166,3.581722 29.5563166,8 C29.5563166,8.44064688 29.5199099,8.88054049 29.447468,9.3151919 L24.1141347,41.3151919 C23.4712174,45.1726957 20.1336965,48 16.2229833,48 L8.44368337,48 C4.02540538,48 0.443683374,44.418278 0.443683374,40 C0.443683374,39.5593531 0.480090082,39.1194595 0.552531983,38.6848081 L5.88586532,6.6848081 C6.52878261,2.82730434 9.86630348,4.27110004e-15 13.7770167,3.55271368e-15 Z" id="Rectangle-3" fill-opacity="0.25"></path>
                        <circle id="Oval-3" cx="13" cy="36" r="4"></circle>
                    </g>
                </g>
            </g>
        </g>
    </g>
</svg>