<?xml version="1.0" encoding="UTF-8"?>
<svg width="88px" height="32px" viewBox="0 0 88 32" version="1.1" xmlns="http://www.w3.org/2000/svg" xmlns:xlink="http://www.w3.org/1999/xlink">
    <!-- Generator: sketchtool 49.3 (51167) - http://www.bohemiancoding.com/sketch -->
    <title>6D295022-F8DA-416B-A7AF-806A3CC5E78A</title>
    <desc>Created with sketchtool.</desc>
    <defs></defs>
    <g id="Symbols" stroke="none" stroke-width="1" fill="none" fill-rule="evenodd">
        <g id="meny-v2" transform="translate(-32.000000, -8.000000)">
            <g id="Meny">
                <g id="-Iplay-Apricot-(BB)" transform="translate(32.000000, 8.000000)">
                    <polyline id="Fill-1" fill="#3BCF7D" points="84.2205268 5.90769231 79.2615385 5.90769231 82.1794732 0 87.1384615 0 84.2205268 5.90769231"></polyline>
                    <polyline id="Fill-2" fill="#169C3F" points="76.3436037 5.90769231 71.3846154 5.90769231 74.3025501 0 79.2615385 0 76.3436037 5.90769231"></polyline>
                    <polyline id="Fill-3" fill="#075220" points="68.4666806 5.90769231 63.5076923 5.90769231 66.4256271 0 71.3846154 0 68.4666806 5.90769231"></polyline>
                    <polyline id="Fill-4" fill="#FFFFFF" points="70.0638537 8.86153846 65.7346373 18.1632009 63.5563291 8.86153846 58.5846154 8.86153846 62.6626642 24.2039518 58.901473 31.5076923 63.6775219 31.5076923 74.8307692 8.86153846 70.0638537 8.86153846"></polyline>
                    <path d="M59.293219,31.7343907 L63.800843,31.7343907 L74.8969954,9.12714771 L70.3967968,9.12714771 L65.91251,18.7942621 L63.6562228,9.12714771 L58.9293701,9.12714771 L63.0031336,24.5055693 L62.98015,24.5509 L59.293219,31.7343907 Z M63.9659717,32 L58.8590048,32 L62.7209651,24.4751128 L58.5846154,8.86153846 L63.8669652,8.86153846 L65.9959584,17.9843309 L70.227425,8.86153846 L75.3230769,8.86153846 L63.9659717,32 Z" id="Fill-5" fill="#FFFFFF"></path>
                    <path d="M51.7201486,22.1302334 L50.6488197,14.0506501 L47.0477472,22.1302334 L51.7201486,22.1302334 Z M37.4153846,31.5076923 L47.1174155,12.0550564 C48.426541,9.43077672 49.8455008,8.36923077 51.7699117,8.36923077 C53.6147016,8.36923077 54.7756041,9.54876541 55.2117423,12.0550564 L58.5846154,31.5076923 L52.9702692,31.5076923 L52.2753628,26.2785043 L45.2026018,26.2785043 L42.8711997,31.5076923 L37.4153846,31.5076923 Z" id="Fill-6" fill="#FFFFFF"></path>
                    <path d="M30.9149716,8.36923077 L36.1689453,8.36923077 L33.6403527,24.4057291 C33.5618467,24.8813478 33.5224192,25.2673928 33.5224192,25.5944245 C33.5224192,26.7634488 34.0831268,27.0704582 35.8147958,27.0704582 L41.8461538,27.0704582 L41.1769334,31.3295988 C39.6521715,31.3987988 36.5625223,31.5076923 35.2146607,31.5076923 C31.4857978,31.5076923 28.0615385,31.3000921 28.0615385,27.1793517 C28.0615385,26.7234041 28.1013149,26.2182789 28.1895905,25.6636246 L30.9149716,8.36923077" id="Fill-7" fill="#FFFFFF"></path>
                    <path d="M18.0792874,18.5616294 C20.6176261,18.5616294 22.15899,17.893051 22.5819274,15.2982136 C22.6322941,14.9541641 22.662657,14.6491557 22.662657,14.3741253 C22.662657,12.7720468 21.7256935,12.1233374 19.1973566,12.1233374 C18.4522153,12.1233374 17.5759776,12.1721388 16.7801123,12.2805475 L15.7827802,18.4532207 C16.5282788,18.5515206 17.2937812,18.5616294 18.0792874,18.5616294 Z M13.7381066,31.0153846 L8.36923077,31.0153846 L12.0156369,8.54515295 C14.181405,8.14219326 16.9212105,7.87692308 19.7717513,7.87692308 C24.3951285,7.87692308 28.0615385,8.69295132 28.0615385,13.4109958 C28.0615385,13.9809258 28.0111718,14.6101146 27.9004365,15.2982136 C26.9031044,21.4809957 22.9244924,22.8174555 17.5656185,22.8174555 C16.7601085,22.8174555 15.7931393,22.7780658 15.0876483,22.7390247 L13.7381066,31.0153846 Z" id="Fill-8" fill="#FFFFFF"></path>
                    <polyline id="Fill-9" fill="#FFFFFF" points="8.86153846 8.36923077 3.7349303 8.36923077 0 31.5076923 5.11074858 31.5076923"></polyline>
                </g>
            </g>
        </g>
    </g>
</svg>