<?xml version="1.0" encoding="UTF-8"?>
<svg width="336px" height="336px" viewBox="0 0 336 336" version="1.1" xmlns="http://www.w3.org/2000/svg" xmlns:xlink="http://www.w3.org/1999/xlink">
    <!-- Generator: sketchtool 49.3 (51167) - http://www.bohemiancoding.com/sketch -->
    <title>9957FB22-874E-4380-B548-C1E5C20047DF</title>
    <desc>Created with sketchtool.</desc>
    <defs></defs>
    <g id="Page-1" stroke="none" stroke-width="1" fill="none" fill-rule="evenodd">
        <g id="Web-—-12-x-7-grid-Copy-3" transform="translate(-504.000000, -1008.000000)">
            <g id="Group-17" transform="translate(504.000000, 1008.000000)">
                <circle id="Oval-2" fill="#3BCF7D" cx="168" cy="168" r="168"></circle>
                <g id="Group-8" transform="translate(57.651475, 12.611260)">
                    <polygon id="Path-4" fill="#FFFFFF" points="79.2707775 199.190664 80.7084339 236.25581 88.6031929 242.316354 133.972861 242.316354 138.701812 233.70072 142.327078 198.176944"></polygon>
                    <g id="Group-2">
                        <polygon id="Path-3" fill="#FFFFFF" points="187.788339 87.0586942 194.243582 105.535172 211.391314 107.811347 215.525213 136.600371 206.444547 150.113912 187.788339 150.113912 168.716753 180.062948 142.78051 196.922983 116.679308 202.39218 93.0246593 202.39218 63.1115254 189.2972 31.8290373 152.70899 23.2511962 150.113912 8.12668957 141.7985 8.12668957 107.811347 26.5344662 107.811347 31.8290373 91.5851324 100.894968 76.2418821 178.395643 87.0586942"></polygon>
                        <g id="Asset-17" fill-rule="nonzero">
                            <path d="M109.379363,207.15977 C68.9490595,207.184316 33.6336422,179.773431 23.5519887,140.542851 C23.1361596,138.927057 23.6122325,137.211722 24.8008752,136.042994 C25.9895179,134.874266 27.7101474,134.429705 29.3146191,134.876771 C30.9190909,135.323838 32.1636475,136.594612 32.5794766,138.210406 C41.6339208,173.294029 73.2226739,197.80162 109.388826,197.80162 C145.554978,197.80162 177.143731,173.294029 186.198175,138.210406 C186.840991,135.712605 189.382969,134.209873 191.875841,134.85396 C194.368713,135.498047 195.868479,138.04505 195.225663,140.542851 C185.136341,179.776375 149.814424,207.18626 109.379363,207.15977 Z" id="Shape" fill="#1E373B"></path>
                            <path d="M193.795902,123.47948 C191.227798,123.47948 189.145938,121.380191 189.145938,118.790586 C189.167909,108.325453 187.131274,97.959847 183.153912,88.2937156 L183.153912,88.1031102 C183.153912,87.9887469 183.0594,87.8553231 183.002693,87.7409598 C182.738061,87.1119619 182.530136,86.5973272 182.284406,86.0826925 C169.578506,57.5387246 141.516753,39.1021424 110.489509,38.9134193 C79.462265,38.7246962 51.1819891,56.8185782 38.135531,85.2059074 C37.8330943,85.8539659 37.5495599,86.4829639 37.2660256,87.1119619 L36.906882,87.9696864 C32.8206138,97.7236527 30.7063538,108.202014 30.6880281,118.790586 C30.531374,121.269441 28.491873,123.199133 26.0286132,123.199133 C23.5653535,123.199133 21.5258525,121.269441 21.3691984,118.790586 C21.3499468,107.009621 23.6701245,95.3440123 28.1929256,84.4816068 C28.3063394,84.1575775 28.4575577,83.8144877 28.608776,83.4713979 C28.8923104,82.8042789 29.2325516,82.0609176 29.5727929,81.3175564 C44.1600878,49.5943583 75.7704414,29.3785521 110.446982,29.5959924 C145.123522,29.8134326 176.482105,50.4240874 190.677024,82.3277653 L191.452018,84.1003959 L191.754454,84.8437571 C196.184139,95.6294221 198.451925,107.192841 198.426963,118.866829 C198.375879,121.414913 196.323268,123.459364 193.795902,123.47948 Z" id="Shape" fill="#1E373B"></path>
                            <path d="M126.869872,248.999944 L91.9087996,248.999944 C81.6166631,248.989504 73.275838,240.634602 73.2654155,230.325096 L73.2654155,196.233083 C73.4221178,193.769904 75.4622452,191.852416 77.9262616,191.852416 C80.3902779,191.852416 82.4304053,193.769904 82.5871076,196.233083 L82.5871076,230.325096 C82.5871076,235.482013 86.7605713,239.66252 91.9087996,239.66252 L126.869872,239.66252 C132.013785,239.6521 136.181162,235.477691 136.191564,230.325096 L136.191564,196.233083 C136.348266,193.769904 138.388394,191.852416 140.85241,191.852416 C143.316426,191.852416 145.356554,193.769904 145.513256,196.233083 L145.513256,230.325096 C145.502833,240.634602 137.162008,248.989504 126.869872,248.999944 Z" id="Shape" fill="#1E373B"></path>
                            <path d="M25.7845653,154.094227 C0,154.094227 0,138.893732 0,117.848352 C0,110.257593 2.3578806,105.019969 7.01659631,102.154458 C15.2311481,97.0876257 26.6022174,102.496042 27.9332791,103.141256 C29.431238,103.887033 30.4167394,105.373703 30.5185545,107.041252 C30.6203695,108.7088 29.8230301,110.303886 28.4268862,111.225658 C27.0307423,112.147429 25.2479015,112.255845 23.7499425,111.510068 C21.2019103,110.257593 14.9839509,108.265019 11.9985698,110.124755 C9.86887123,111.434161 9.43152241,115.039771 9.43152241,117.848352 C9.43152241,140.032346 9.98296223,144.738617 25.8416108,144.738617 C28.3145637,144.895889 30.2396613,146.94344 30.2396613,149.416422 C30.2396613,151.889404 28.3145637,153.936955 25.8416108,154.094227 L25.7845653,154.094227 Z" id="Shape" fill="#1E373B"></path>
                            <path d="M193.955484,154.094227 C191.482612,153.936955 189.557578,151.889404 189.557578,149.416422 C189.557578,146.94344 191.482612,144.895889 193.955484,144.738617 C209.813612,144.738617 210.365034,140.032346 210.365034,117.848352 C210.365034,115.039771 209.908685,111.415184 207.779056,110.105778 C204.793773,108.208088 198.480945,110.295547 196.047084,111.510068 C193.731516,112.66294 190.917936,111.724105 189.762778,109.413121 C188.607619,107.102137 189.548317,104.294128 191.863885,103.141256 C193.137859,102.496042 204.508555,97.0876257 212.779881,102.154458 C217.438443,105.019969 219.796247,110.295547 219.796247,117.848352 C219.739203,138.893732 219.739203,154.094227 193.955484,154.094227 Z" id="Shape" fill="#1E373B"></path>
                            <path d="M193.515879,102.017401 C191.617353,101.46614 189.718827,100.933888 187.820301,100.439654 C187.592478,99.6983024 187.345669,99.0139781 187.098861,98.3106447 C166.632752,87.47551 101.038682,59.1140697 33.7928944,97.0940682 C33.470145,97.9684826 33.1663808,98.861906 32.8626167,99.7553294 C28.4390513,101.009924 25.9519824,101.922356 25.6861888,102.017401 C25.5153214,99.7553294 25.4393804,97.5122664 25.4393804,95.2311854 C25.4393804,46.5681242 63.1630901,7.14344101 109.676975,7.14344101 C156.190859,7.14344101 193.800657,46.5681242 193.800657,95.2311854 C193.800657,97.5122664 195.224552,102.492627 193.515879,102.017401 Z" id="Shape" fill="#1E373B"></path>
                            <path d="M193.339291,96.9466994 C191.442331,96.060021 189.545371,95.1733426 187.800168,94.3432607 C112.168382,59.5552829 51.9778478,83.2503481 32.249466,93.1358689 C27.8105801,95.4374596 25.4393804,96.9089684 25.4393804,96.9089684 C25.4393804,96.9089684 25.4393804,96.9089684 25.4393804,96.9089684 C28.1330633,90.8342781 30.8457158,85.1746288 33.5393987,79.9300205 C33.2169155,82.9485001 32.913402,86.0424417 32.6098884,89.1363833 C52.8504493,69.0257628 112.946135,22.6543693 187.648412,91.4002431 C187.420777,88.8911319 187.174172,86.4952137 186.927567,84.0238335 C190.835304,91.2870501 193.111656,96.2675415 193.339291,96.9466994 Z" id="Shape" fill="#FFFFFF"></path>
                            <path d="M193.6914,102.048972 C192.993768,102.049834 192.305604,101.885409 191.681874,101.568832 L191.018351,101.223131 C189.406939,100.454906 187.814484,99.6674761 186.222029,98.9376628 C113.670552,64.9245211 56.2284368,86.7036869 34.9009187,97.631681 C30.8060353,99.8019154 28.5311,101.261542 28.5121422,101.280748 C26.7761114,102.36677 24.5457832,102.188982 22.9987813,100.841257 C21.4517793,99.4935316 20.9442656,97.2861517 21.7442098,95.3846242 C24.3793431,89.3924728 27.0523921,83.6499943 29.9339767,77.849899 C30.7374365,76.1828625 32.4295607,75.1464569 34.2599929,75.2002664 C36.090425,75.254076 37.7203795,76.3881414 38.4270684,78.099572 C49.8017447,68.3047091 67.3566618,56.5892847 89.1960404,52.0375543 C120.91243,45.3347952 152.590903,55.2256862 183.454191,81.3645263 C184.402282,80.0562466 185.94478,79.3298085 187.54322,79.4388022 C189.14166,79.5477959 190.574153,80.4770914 191.340634,81.9022835 C195.132193,89.1427998 197.577748,94.3667267 198.013777,95.346213 C198.428147,96.2864547 198.534445,97.336409 198.317102,98.3422887 C197.826985,100.525805 195.90168,102.068597 193.6914,102.048972 Z M107.717805,71.1855511 C128.422526,71.2528646 148.975353,74.7696149 168.553366,81.5949937 C116.457348,43.3182057 73.593776,62.3893801 49.3277999,81.2108814 C68.0939267,74.5576674 87.8357153,71.1680813 107.717805,71.1855511 Z" id="Shape" fill="#1E373B"></path>
                            <ellipse id="Oval" fill="#1E373B" cx="110.406911" cy="10.7151615" rx="10.6845398" ry="10.7151615"></ellipse>
                            <path d="M120.756859,143.879679 L95.4082996,143.879679 C93.659743,143.991981 91.9941569,143.115551 91.0861167,141.605351 C90.1780766,140.095151 90.1780766,138.201474 91.0861167,136.691274 C91.9941569,135.181074 93.659743,134.304644 95.4082996,134.416946 L103.388049,134.416946 L103.388049,107.218784 C103.388049,101.460529 96.2272237,101.306975 95.4082996,101.306975 L57.3188038,101.306975 C54.8420037,101.147902 52.9139112,99.0769064 52.9139112,96.5756083 C52.9139112,94.0743103 54.8420037,92.0033148 57.3188038,91.8442415 L95.4082996,91.8442415 C102.397722,91.8442415 112.77711,95.9326031 112.77711,107.19959 L112.77711,134.416946 L120.756859,134.416946 C123.233659,134.576019 125.161752,136.647014 125.161752,139.148312 C125.161752,141.64961 123.233659,143.720606 120.756859,143.879679 Z" id="Shape" fill="#1E373B"></path>
                            <path d="M162.89614,101.019335 L131.183098,101.019335 C129.434346,101.128113 127.768574,100.279188 126.860433,98.8163827 C125.952291,97.3535775 125.952291,95.5193298 126.860433,94.0565245 C127.768574,92.5937193 129.434346,91.7447946 131.183098,91.8535718 L162.89614,91.8535718 C164.644891,91.7447946 166.310663,92.5937193 167.218805,94.0565245 C168.126946,95.5193298 168.126946,97.3535775 167.218805,98.8163827 C166.310663,100.279188 164.644891,101.128113 162.89614,101.019335 Z" id="Shape" fill="#1E373B"></path>
                            <ellipse id="Oval" fill="#1E373B" cx="73.2654155" cy="112.254073" rx="5.08787608" ry="5.10245786"></ellipse>
                            <ellipse id="Oval" fill="#1E373B" cx="146.530831" cy="112.254073" rx="5.08787608" ry="5.10245786"></ellipse>
                            <path d="M109.912761,175.524551 C97.7273443,175.524551 86.2929551,163.828372 85.8235631,163.302044 C84.4942082,161.936472 84.0934096,159.871262 84.8096764,158.077751 C85.5338046,156.286951 87.2198561,155.119936 89.0905314,155.11472 L130.716214,155.11472 C132.575419,155.113738 134.253951,156.27022 134.975428,158.049251 C135.696906,159.828281 135.320666,161.883012 134.020734,163.263057 C133.532566,163.808879 122.116953,175.524551 109.912761,175.524551 Z M104.280057,164.725079 C106.074133,165.46761 107.981851,165.870345 109.912761,165.914191 C111.844126,165.874594 113.752568,165.471706 115.545465,164.725079 L104.280057,164.725079 Z" id="Shape" fill="#1E373B"></path>
                            <path d="M109.893343,196.954874 C106.083394,196.954874 99.1683351,195.062397 96.1013257,182.931624 C95.1878125,179.122993 94.69595,175.226602 94.6344951,171.311818 C94.7923713,168.850623 96.8477824,166.934677 99.330258,166.934677 C101.812734,166.934677 103.868145,168.850623 104.026021,171.311818 C104.026021,176.83785 105.835747,187.64389 109.893343,187.64389 C113.95094,187.64389 115.760666,177.159571 115.760666,171.311818 C115.649209,169.574278 116.519044,167.919185 118.017879,167.016866 C119.516715,166.114547 121.396142,166.114547 122.894978,167.016866 C124.393813,167.919185 125.263648,169.574278 125.152191,171.311818 C125.106585,175.24528 124.62101,179.161518 123.704411,182.988398 C120.618351,195.138096 113.741392,196.954874 109.893343,196.954874 Z" id="Shape" fill="#1E373B"></path>
                            <path d="M57.6266469,291.86059 C36.7064587,291.86059 28.3764201,281.485778 25.2954469,275.291294 C19.8942347,264.327437 22.1384003,249.810301 31.0009528,238.276399 C42.0315975,223.930277 60.2131429,217.678788 79.6308813,221.555092 C82.1727395,222.079803 83.8075824,224.563922 83.282405,227.103525 C82.7572277,229.643129 80.2709042,231.276522 77.729046,230.751811 C61.9057763,227.578563 47.1855711,232.53795 38.3800737,244.052851 C31.6665951,252.774533 29.8218149,263.453368 33.6635222,271.224976 C37.315046,278.635556 45.5690111,282.625868 57.5505735,282.625868 C105.096456,282.625868 105.609951,193.318883 105.609951,192.463816 C105.60993,189.879144 107.701521,187.780914 110.288466,187.770449 C112.882842,187.770449 114.985999,189.871741 114.985999,192.463816 C114.706275,208.898556 112.432836,225.238763 108.215466,241.126622 C99.1056747,274.189208 81.5327166,291.86059 57.6266469,291.86059 Z" id="Shape" fill="#1E373B"></path>
                            <path d="M166.682386,290.840098 C142.815013,290.840098 124.809802,273.345044 114.836514,240.267273 C110.231788,224.493768 107.554219,208.225803 106.86169,191.815061 C106.716723,190.084552 107.547541,188.416612 109.019463,187.48314 C110.491386,186.549668 112.362045,186.504372 113.877877,187.365497 C115.39371,188.226623 116.305118,189.852377 116.244956,191.587852 C116.244956,192.477752 119.080872,281.543484 166.682386,281.543484 C178.102182,281.543484 185.924742,277.908148 189.331647,271.016157 C193.138246,263.328936 191.025584,252.441862 183.926278,243.258852 C174.409781,230.857054 158.859826,225.404051 142.47242,228.660706 C140.83026,228.99893 139.131458,228.439935 138.015937,227.194288 C136.900416,225.948642 136.537649,224.205588 137.064287,222.621717 C137.590926,221.037847 138.926961,219.853788 140.56912,219.515564 C160.53473,215.539415 179.49159,222.298868 191.292046,237.578639 C200.54208,249.544954 203.035402,264.294572 197.668098,275.143778 C194.832182,280.975463 186.93349,290.840098 166.682386,290.840098 Z" id="Shape" fill="#1E373B"></path>
                        </g>
                    </g>
                </g>
            </g>
        </g>
    </g>
</svg>