<?xml version="1.0" encoding="UTF-8"?>
<svg width="33px" height="32px" viewBox="0 0 33 32" version="1.1" xmlns="http://www.w3.org/2000/svg" xmlns:xlink="http://www.w3.org/1999/xlink">
    <!-- Generator: sketchtool 49.3 (51167) - http://www.bohemiancoding.com/sketch -->
    <title>BEF7B099-6D30-45FF-AB25-532C321FF967</title>
    <desc>Created with sketchtool.</desc>
    <defs></defs>
    <g id="Page-1" stroke="none" stroke-width="1" fill="none" fill-rule="evenodd">
        <g id="Web-—-12-x-7-grid-Copy-3" transform="translate(-111.000000, -112.000000)" fill="#3BCF7D">
            <path d="M116.28,137.333333 C116.28,136.604167 115.681875,136 114.96,136 C114.2175,136 113.64,136.604167 113.64,137.333333 C113.64,138.083333 114.2175,138.666667 114.96,138.666667 C115.681875,138.666667 116.28,138.083333 116.28,137.333333 Z M119.58,126.666667 L119.58,140 C119.58,140.729167 118.981875,141.333333 118.26,141.333333 L112.32,141.333333 C111.598125,141.333333 111,140.729167 111,140 L111,126.666667 C111,125.9375 111.598125,125.333333 112.32,125.333333 L118.26,125.333333 C118.981875,125.333333 119.58,125.9375 119.58,126.666667 Z M144,126.666667 C144,127.770833 143.566875,128.958333 142.865625,129.770833 C143.0925,130.4375 143.175,131.0625 143.175,131.354167 C143.21625,132.395833 142.906875,133.375 142.288125,134.208333 C142.515,134.979167 142.515,135.8125 142.288125,136.645833 C142.081875,137.416667 141.69,138.104167 141.174375,138.604167 C141.298125,140.166667 140.9475,141.4375 140.16375,142.375 C139.276875,143.4375 137.915625,143.979167 136.100625,144 L133.44,144 C130.490625,144 127.70625,143.020833 125.47875,142.25 C124.179375,141.791667 122.941875,141.354167 122.22,141.333333 C121.51875,141.3125 120.9,140.729167 120.9,140 L120.9,126.645833 C120.9,125.958333 121.4775,125.375 122.158125,125.3125 C122.92125,125.25 124.90125,122.770833 125.80875,121.5625 C126.55125,120.604167 127.2525,119.708333 127.891875,119.0625 C128.69625,118.25 128.923125,117 129.170625,115.791667 C129.3975,114.5625 129.645,113.270833 130.531875,112.395833 C130.779375,112.145833 131.109375,112 131.46,112 C136.08,112 136.08,115.729167 136.08,117.333333 C136.08,119.041667 135.481875,120.25 134.925,121.333333 C134.698125,121.791667 134.491875,122 134.326875,122.666667 L140.04,122.666667 C142.185,122.666667 144,124.5 144,126.666667 Z" id=""></path>
        </g>
    </g>
</svg>